<svg width="409" height="140" viewBox="0 0 409 140" fill="none" xmlns="http://www.w3.org/2000/svg">
<path d="M8.32102 112V27.6364H40.6165C46.7131 27.6364 51.7798 28.5975 55.8168 30.5199C59.8812 32.4148 62.9157 35.0099 64.9205 38.3054C66.9527 41.6008 67.9688 45.3357 67.9688 49.5099C67.9688 52.9427 67.3097 55.8812 65.9915 58.3253C64.6733 60.7419 62.902 62.7055 60.6776 64.2159C58.4531 65.7263 55.9678 66.8111 53.2216 67.4702V68.294C56.215 68.4588 59.0848 69.3788 61.831 71.054C64.6046 72.7017 66.8703 75.036 68.6278 78.0568C70.3854 81.0776 71.2642 84.7301 71.2642 89.0142C71.2642 93.3807 70.2069 97.3078 68.0923 100.795C65.9777 104.256 62.7921 106.988 58.5355 108.993C54.2789 110.998 48.9238 112 42.4702 112H8.32102ZM23.6037 99.2301H40.0398C45.5871 99.2301 49.5829 98.1728 52.027 96.0582C54.4986 93.9162 55.7344 91.17 55.7344 87.8196C55.7344 85.3205 55.1165 83.0687 53.8807 81.0639C52.6449 79.0317 50.8873 77.4389 48.608 76.2855C46.3286 75.1046 43.6098 74.5142 40.4517 74.5142H23.6037V99.2301ZM23.6037 63.5156H38.7216C41.358 63.5156 43.7334 63.035 45.848 62.0739C47.9626 61.0852 49.6241 59.6984 50.8324 57.9134C52.0682 56.1009 52.6861 53.9588 52.6861 51.4872C52.6861 48.2192 51.5327 45.5279 49.2259 43.4133C46.9465 41.2988 43.5549 40.2415 39.0511 40.2415H23.6037V63.5156ZM100.108 113.277C96.0981 113.277 92.4869 112.563 89.2738 111.135C86.0882 109.679 83.5617 107.537 81.6942 104.709C79.8543 101.88 78.9343 98.3925 78.9343 94.2457C78.9343 90.6757 79.5934 87.7235 80.9116 85.3892C82.2298 83.0549 84.0285 81.1875 86.3079 79.7869C88.5872 78.3864 91.1549 77.3291 94.011 76.6151C96.8945 75.8736 99.8742 75.3381 102.95 75.0085C106.657 74.6241 109.664 74.2808 111.971 73.9787C114.278 73.6491 115.953 73.1548 116.997 72.4957C118.068 71.8092 118.603 70.7519 118.603 69.3239V69.0767C118.603 65.9735 117.683 63.5705 115.843 61.8679C114.003 60.1652 111.353 59.3139 107.893 59.3139C104.241 59.3139 101.343 60.1103 99.2014 61.7031C97.0868 63.2959 95.6587 65.1771 94.9173 67.3466L80.994 65.3693C82.0924 61.5246 83.9049 58.3116 86.4315 55.7301C88.958 53.1212 92.0475 51.1714 95.6999 49.8807C99.3524 48.5625 103.389 47.9034 107.811 47.9034C110.859 47.9034 113.894 48.2604 116.914 48.9744C119.935 49.6884 122.695 50.8693 125.194 52.517C127.693 54.1373 129.698 56.348 131.208 59.1491C132.746 61.9503 133.515 65.4517 133.515 69.6534V112H119.18V103.308H118.686C117.779 105.066 116.502 106.714 114.855 108.251C113.234 109.762 111.189 110.984 108.717 111.918C106.273 112.824 103.403 113.277 100.108 113.277ZM103.98 102.32C106.973 102.32 109.568 101.729 111.765 100.548C113.962 99.34 115.651 97.7472 116.832 95.7699C118.04 93.7926 118.645 91.6368 118.645 89.3026V81.8466C118.178 82.2311 117.381 82.5881 116.255 82.9176C115.157 83.2472 113.921 83.5355 112.548 83.7827C111.175 84.0298 109.815 84.2495 108.47 84.4418C107.124 84.634 105.957 84.7988 104.968 84.9361C102.744 85.2382 100.753 85.7325 98.9954 86.419C97.2378 87.1056 95.851 88.0668 94.8349 89.3026C93.8188 90.5109 93.3107 92.0762 93.3107 93.9986C93.3107 96.7448 94.3131 98.8182 96.3178 100.219C98.3226 101.619 100.877 102.32 103.98 102.32ZM196.518 65.4517L182.924 66.9347C182.54 65.5616 181.867 64.2708 180.906 63.0625C179.972 61.8542 178.709 60.8793 177.116 60.1378C175.523 59.3963 173.574 59.0256 171.267 59.0256C168.163 59.0256 165.555 59.6984 163.44 61.044C161.353 62.3897 160.323 64.1335 160.35 66.2756C160.323 68.1155 160.996 69.6122 162.369 70.7656C163.77 71.919 166.076 72.8665 169.289 73.608L180.082 75.9148C186.069 77.2055 190.518 79.2514 193.429 82.0526C196.367 84.8537 197.85 88.5199 197.877 93.0511C197.85 97.0331 196.683 100.548 194.376 103.597C192.097 106.617 188.925 108.979 184.86 110.682C180.796 112.384 176.127 113.236 170.855 113.236C163.11 113.236 156.877 111.616 152.153 108.375C147.43 105.107 144.615 100.562 143.708 94.7401L158.25 93.3395C158.909 96.1955 160.309 98.3513 162.451 99.8068C164.593 101.262 167.381 101.99 170.814 101.99C174.356 101.99 177.199 101.262 179.341 99.8068C181.51 98.3513 182.595 96.5526 182.595 94.4105C182.595 92.598 181.895 91.1013 180.494 89.9205C179.121 88.7396 176.979 87.8333 174.068 87.2017L163.275 84.9361C157.206 83.6728 152.716 81.5445 149.805 78.5511C146.894 75.5303 145.452 71.7131 145.48 67.0994C145.452 63.1998 146.51 59.822 148.652 56.9659C150.821 54.0824 153.828 51.858 157.673 50.2926C161.545 48.6998 166.008 47.9034 171.061 47.9034C178.475 47.9034 184.311 49.4825 188.568 52.6406C192.852 55.7988 195.502 60.0691 196.518 65.4517ZM236.185 113.236C229.841 113.236 224.363 111.918 219.749 109.281C215.163 106.617 211.634 102.855 209.162 97.9943C206.691 93.1061 205.455 87.3527 205.455 80.7344C205.455 74.2259 206.691 68.5137 209.162 63.598C211.661 58.6548 215.149 54.8101 219.625 52.0639C224.102 49.2902 229.361 47.9034 235.402 47.9034C239.302 47.9034 242.982 48.535 246.442 49.7983C249.93 51.0341 253.006 52.9564 255.669 55.5653C258.361 58.1742 260.475 61.4972 262.013 65.5341C263.551 69.5436 264.32 74.322 264.32 79.8693V84.4418H212.458V74.3906H250.026C249.998 71.5346 249.381 68.9943 248.172 66.7699C246.964 64.518 245.275 62.7467 243.105 61.456C240.963 60.1652 238.464 59.5199 235.608 59.5199C232.56 59.5199 229.882 60.2614 227.576 61.7443C225.269 63.1998 223.47 65.1222 222.179 67.5114C220.916 69.8731 220.271 72.4683 220.243 75.2969V84.071C220.243 87.7509 220.916 90.9091 222.262 93.5455C223.607 96.1544 225.489 98.1591 227.905 99.5597C230.322 100.933 233.15 101.619 236.391 101.619C238.56 101.619 240.524 101.317 242.282 100.713C244.039 100.081 245.563 99.1615 246.854 97.9531C248.145 96.7448 249.12 95.2481 249.779 93.4631L263.702 95.0284C262.823 98.7083 261.148 101.921 258.676 104.668C256.232 107.386 253.102 109.501 249.284 111.011C245.467 112.494 241.101 113.236 236.185 113.236ZM355.548 27.6364H370.831V82.7528C370.831 88.7945 369.403 94.1084 366.547 98.6946C363.718 103.281 359.736 106.865 354.601 109.446C349.465 112 343.465 113.277 336.599 113.277C329.706 113.277 323.692 112 318.557 109.446C313.421 106.865 309.439 103.281 306.611 98.6946C303.782 94.1084 302.368 88.7945 302.368 82.7528V27.6364H317.651V81.4759C317.651 84.991 318.42 88.1217 319.957 90.8679C321.523 93.6141 323.72 95.7699 326.548 97.3352C329.377 98.8731 332.727 99.642 336.599 99.642C340.472 99.642 343.822 98.8731 346.651 97.3352C349.507 95.7699 351.704 93.6141 353.241 90.8679C354.779 88.1217 355.548 84.991 355.548 81.4759V27.6364ZM400.725 27.6364V112H385.442V27.6364H400.725Z" fill="white"/>
</svg>
